<?xml version="1.0" standalone="no"?>
<!DOCTYPE svg PUBLIC "-//W3C//DTD SVG 20010904//EN"
 "http://www.w3.org/TR/2001/REC-SVG-20010904/DTD/svg10.dtd">
<svg version="1.0" xmlns="http://www.w3.org/2000/svg"
 width="1709.000000pt" height="472.000000pt" viewBox="0 0 1709.000000 472.000000"
 preserveAspectRatio="xMidYMid meet">

<g transform="translate(0.000000,472.000000) scale(0.100000,-0.100000)"
fill="#000000" stroke="none">
<path d="M683 4580 c-79 -73 -143 -136 -143 -140 0 -4 24 -23 53 -43 28 -20
86 -68 127 -106 l75 -69 128 120 127 120 -49 57 c-27 31 -78 87 -113 125 l-63
68 -142 -132z"/>
<path d="M1080 4158 c-31 -47 -40 -68 -35 -88 11 -50 27 -79 51 -95 80 -51 67
-53 113 16 55 83 55 114 -3 167 -77 71 -79 71 -126 0z"/>
<path d="M809 3815 c-58 -30 -103 -71 -133 -123 -9 -14 172 -222 190 -219 6 1
50 47 98 101 l87 100 -38 40 c-94 101 -128 136 -133 136 -3 -1 -35 -16 -71
-35z"/>
<path d="M819 3323 c-74 -36 -228 -193 -307 -313 -130 -197 -244 -452 -305
-680 -29 -107 -31 -126 -31 -290 0 -157 3 -185 27 -272 55 -206 140 -370 341
-660 64 -92 116 -173 116 -179 0 -35 -109 -150 -301 -320 -191 -168 -260 -243
-303 -330 -34 -67 -63 -186 -52 -214 5 -13 103 -15 853 -13 l848 3 3 67 c5
113 -6 136 -111 230 -50 45 -196 186 -324 312 l-232 229 16 31 c8 17 66 108
129 202 189 285 291 504 330 712 20 107 14 348 -11 462 -87 393 -356 853 -604
1029 l-28 20 -54 -26z m187 -462 c214 -325 272 -477 281 -741 4 -109 1 -168
-11 -240 -46 -260 -186 -542 -353 -708 -41 -39 -78 -72 -82 -72 -8 0 -141 187
-258 360 -124 184 -170 384 -161 696 4 136 8 157 38 244 43 126 123 283 208
411 69 102 185 239 203 239 5 0 66 -85 135 -189z m149 -2406 l190 -184 -316
-1 c-174 0 -392 -3 -485 -7 l-168 -6 161 171 c89 95 192 208 229 251 l68 80
65 -60 c36 -32 152 -142 256 -244z"/>
<path d="M8826 3043 c-4 -4 -78 -8 -164 -9 -184 -2 -271 -18 -417 -75 -118
-46 -252 -120 -416 -229 -213 -144 -314 -246 -385 -394 -52 -109 -67 -195 -62
-355 7 -170 17 -198 95 -247 140 -90 228 -109 271 -58 24 28 24 31 16 134 -4
58 -8 164 -8 235 1 114 4 140 28 208 36 107 86 182 208 313 91 97 115 117 206
168 57 32 106 55 109 52 7 -7 74 -2428 71 -2569 l-3 -117 292 0 292 0 12 43
c7 23 39 112 72 197 32 85 241 648 464 1250 222 602 429 1150 459 1216 51 115
84 227 71 241 -4 3 -53 1 -109 -6 -94 -11 -106 -15 -136 -44 -80 -76 -165
-304 -332 -882 -155 -540 -181 -611 -313 -859 -25 -47 -32 -76 -37 -140 -5
-67 -11 -91 -38 -137 -18 -31 -41 -64 -51 -73 -18 -16 -18 -21 -5 -59 14 -40
14 -43 -21 -116 -27 -57 -39 -72 -45 -61 -40 71 -70 879 -70 1888 l0 492 -23
0 c-13 0 -27 -3 -31 -7z"/>
<path d="M3439 2471 c-75 -25 -104 -50 -376 -341 -267 -285 -450 -464 -563
-549 -80 -60 -170 -111 -197 -111 -10 0 -13 107 -13 500 l0 500 -145 0 -145 0
0 -1205 0 -1205 78 0 c96 0 141 12 174 47 57 61 60 123 45 771 -10 396 -19
367 99 307 126 -63 261 -198 467 -465 333 -433 478 -596 572 -641 45 -21 66
-24 203 -27 110 -3 152 -1 152 8 0 6 -12 36 -27 67 -20 40 -58 85 -139 162
-115 110 -824 915 -883 1002 -33 49 -33 51 -15 72 11 12 243 264 517 560 275
296 497 540 495 542 -8 8 -276 14 -299 6z"/>
<path d="M14431 2141 l-203 -36 -29 -49 c-15 -27 -44 -97 -64 -155 -20 -58
-57 -143 -81 -188 -25 -46 -63 -131 -85 -190 -22 -60 -65 -156 -94 -215 -35
-71 -56 -126 -60 -162 -8 -62 -25 -89 -154 -247 -135 -166 -168 -262 -138
-405 23 -107 74 -223 116 -262 62 -58 153 -112 236 -139 72 -24 94 -27 215
-26 212 1 352 44 554 172 53 33 140 93 194 133 117 87 397 359 411 399 9 27 8
29 -16 29 -51 0 -150 -22 -175 -38 -14 -9 -63 -47 -109 -84 -45 -37 -84 -66
-86 -65 -1 2 -14 130 -28 284 -21 238 -23 289 -13 339 17 84 15 389 -5 584 -9
91 -19 209 -23 263 l-6 97 -77 -1 c-42 -1 -168 -17 -280 -38z m-202 -558 c34
-176 76 -695 69 -860 -3 -79 -9 -109 -30 -155 -52 -112 -160 -198 -270 -213
-109 -16 -230 60 -297 185 l-32 60 61 29 c62 30 189 58 215 48 17 -7 60 114
50 141 -3 9 -11 87 -16 172 l-10 154 117 248 c65 136 120 248 124 248 4 0 12
-26 19 -57z"/>
<path d="M10933 2080 c-444 -65 -810 -505 -898 -1080 -38 -248 -1 -586 80
-726 70 -121 214 -188 426 -201 315 -18 599 87 850 315 42 38 93 82 113 97
l37 28 -21 22 -21 22 44 59 c24 32 61 75 83 94 31 29 39 43 39 71 l0 35 -80
-25 c-44 -15 -96 -36 -115 -48 -40 -24 -191 -177 -208 -209 -9 -17 -49 -32
-194 -73 -101 -28 -199 -51 -219 -51 -74 0 -139 29 -196 86 -52 52 -54 56 -48
93 4 22 -1 97 -10 167 -12 96 -13 129 -5 134 7 4 60 20 119 35 147 38 280 81
358 116 213 96 362 262 412 461 55 217 24 449 -70 521 -41 31 -89 43 -229 57
-116 11 -169 11 -247 0z m219 -210 c37 -41 51 -100 46 -200 -8 -156 -89 -322
-212 -438 -73 -68 -144 -105 -230 -121 -86 -16 -126 -14 -126 5 0 43 80 273
130 374 65 128 180 323 213 358 35 38 88 63 122 57 17 -3 42 -18 57 -35z"/>
<path d="M16206 2060 c-398 -101 -727 -536 -811 -1075 -25 -160 -17 -403 18
-537 34 -128 49 -157 114 -222 135 -134 343 -189 581 -152 114 17 277 68 370
115 137 69 366 270 480 422 46 61 122 201 122 225 0 10 -7 13 -22 10 -13 -3
-43 -8 -68 -11 -25 -3 -59 -14 -76 -23 -51 -27 -244 -219 -244 -242 0 -33 -80
-105 -146 -131 -54 -21 -75 -23 -229 -24 -163 0 -173 1 -220 25 -59 30 -140
139 -131 174 3 12 8 64 11 116 8 133 13 158 33 169 10 5 72 22 137 36 66 15
155 40 199 56 319 116 560 442 560 759 0 113 -24 180 -84 234 -84 76 -421 119
-594 76z m301 -186 c31 -9 46 -68 46 -179 -1 -315 -213 -561 -507 -591 -61 -6
-69 -5 -63 9 3 9 27 81 52 162 34 107 57 161 87 203 60 86 116 186 148 262 18
43 42 81 66 104 35 32 45 35 94 36 30 0 65 -3 77 -6z"/>
<path d="M12124 2045 c-1 -5 -89 -435 -193 -955 -105 -520 -193 -955 -196
-968 l-5 -22 282 2 282 3 146 700 c81 385 152 711 160 725 27 51 129 166 163
184 29 16 44 18 98 10 l64 -9 23 -85 c13 -47 29 -101 35 -120 l13 -35 126 -3
126 -3 42 53 c69 86 110 181 110 255 0 80 -24 133 -93 207 l-52 55 -145 -8
c-174 -9 -202 -19 -328 -119 -86 -68 -122 -92 -140 -92 -4 0 2 47 14 105 l22
105 -47 1 c-25 1 -73 1 -106 0 -33 0 -136 5 -229 12 -115 9 -169 9 -172 2z"/>
<path d="M4621 1665 c-437 -95 -682 -418 -658 -869 7 -136 34 -244 89 -356 58
-117 196 -257 313 -317 103 -53 226 -89 356 -103 224 -25 363 15 590 169 l103
70 23 -48 c30 -62 108 -135 181 -169 79 -37 192 -42 240 -12 44 27 66 80 57
138 -8 57 -39 88 -96 97 -88 14 -124 37 -155 101 l-29 59 -5 605 -5 605 -125
0 -125 0 -3 -56 -3 -57 -40 -4 c-34 -3 -44 1 -72 30 -43 45 -156 98 -245 117
-91 19 -303 19 -391 0z m304 -250 c305 -64 489 -371 420 -700 -53 -248 -228
-413 -476 -446 -207 -28 -428 85 -559 285 -146 222 -112 504 85 701 147 147
329 202 530 160z"/>
<path d="M6671 1662 c-15 -28 -159 -62 -172 -41 -6 10 -44 15 -148 17 l-141 4
0 -791 0 -791 146 0 146 0 -8 248 c-15 415 -10 659 15 781 52 250 162 353 359
338 173 -13 268 -110 325 -334 21 -85 22 -102 21 -561 l-1 -472 122 0 122 0 6
263 c15 565 7 764 -33 923 -57 223 -189 357 -401 409 -35 9 -128 19 -205 22
-136 6 -142 5 -153 -15z"/>
</g>
</svg>
